<svg xmlns="http://www.w3.org/2000/svg" viewBox="0 0 72.17 65.45"><title>paper-speach_1</title><g id="Layer_2" data-name="Layer 2"><g id="Layer_3" data-name="Layer 3"><polygon points="48 51.62 36.35 46.76 38.6 65.45 48 51.62" fill="#9c342e"/><g opacity="0.5"><path d="M48,51.65c-1.94,2.43-4.25,7.16-7.46,5.83S37.24,52,36.35,46.8Z" fill="#464648" opacity="0"/><path d="M48,51.64c-1.9,2.38-4.2,7-7.41,5.63s-3.36-5.35-4.22-10.47Z" fill="#454547" opacity="0.01"/><path d="M48,51.63c-1.85,2.32-4.16,6.78-7.37,5.44S37.2,51.8,36.35,46.8Z" fill="#444446" opacity="0.02"/><path d="M47.95,51.62c-1.81,2.27-4.12,6.58-7.32,5.25s-3.46-5.19-4.28-10.07Z" fill="#434345" opacity="0.04"/><path d="M47.93,51.61c-1.76,2.22-4.07,6.39-7.27,5.06s-3.51-5.11-4.3-9.87Z" fill="#434244" opacity="0.05"/><path d="M47.91,51.61c-1.72,2.16-4,6.19-7.22,4.87s-3.56-5-4.33-9.67Z" fill="#424143" opacity="0.06"/><path d="M47.89,51.6c-1.67,2.11-4,6-7.17,4.67s-3.62-5-4.36-9.47Z" fill="#414042" opacity="0.07"/><path d="M47.87,51.59c-1.63,2.06-3.94,5.8-7.12,4.48s-3.67-4.87-4.39-9.27Z" fill="#403f41" opacity="0.09"/><path d="M47.86,51.58c-1.58,2-3.9,5.61-7.07,4.29s-3.72-4.79-4.41-9.07Z" fill="#3f3e40" opacity="0.1"/><path d="M47.84,51.58c-1.54,2-3.86,5.41-7,4.1S37,51,36.37,46.81Z" fill="#3e3d3f" opacity="0.11"/><path d="M47.82,51.57c-1.49,1.9-3.81,5.22-7,3.91S37,50.84,36.37,46.81Z" fill="#3d3c3e" opacity="0.12"/><path d="M47.8,51.56c-1.45,1.85-3.77,5-6.92,3.71s-3.88-4.56-4.5-8.46Z" fill="#3d3c3d" opacity="0.13"/><path d="M47.78,51.55c-1.4,1.79-3.73,4.83-6.87,3.52S37,50.6,36.38,46.81Z" fill="#3c3b3c" opacity="0.15"/><path d="M47.76,51.54c-1.36,1.74-3.68,4.64-6.83,3.33s-4-4.4-4.55-8.06Z" fill="#3b3a3b" opacity="0.16"/><path d="M47.74,51.54C46.43,53.22,44.1,56,41,54.67s-4-4.32-4.58-7.86Z" fill="#3a393a" opacity="0.17"/><path d="M47.72,51.53c-1.27,1.63-3.6,4.25-6.73,2.95s-4.08-4.24-4.61-7.66Z" fill="#393839" opacity="0.18"/><path d="M47.7,51.52c-1.22,1.58-3.55,4.05-6.68,2.76s-4.14-4.16-4.64-7.46Z" fill="#383738" opacity="0.2"/><path d="M47.68,51.51c-1.18,1.53-3.51,3.86-6.63,2.56S36.87,50,36.39,46.82Z" fill="#373637" opacity="0.21"/><path d="M47.67,51.5c-1.14,1.47-3.47,3.66-6.58,2.37s-4.24-4-4.69-7.06Z" fill="#373536" opacity="0.22"/><path d="M47.65,51.5c-1.09,1.42-3.42,3.47-6.53,2.18s-4.29-3.92-4.72-6.86Z" fill="#363435" opacity="0.23"/><path d="M47.63,51.49a5.4,5.4,0,0,1-6.48,2c-3.1-1.29-4.34-3.84-4.75-6.66Z" fill="#353334" opacity="0.24"/><path d="M47.61,51.48a5.34,5.34,0,0,1-6.43,1.8,7.67,7.67,0,0,1-4.77-6.46Z" fill="#343234" opacity="0.26"/><path d="M47.59,51.47a5.29,5.29,0,0,1-6.38,1.6,7.56,7.56,0,0,1-4.8-6.26Z" fill="#333133" opacity="0.27"/><path d="M47.57,51.47a5.25,5.25,0,0,1-6.33,1.41,7.45,7.45,0,0,1-4.83-6.05Z" fill="#323032" opacity="0.28"/><path d="M47.55,51.46a5.23,5.23,0,0,1-6.28,1.22,7.36,7.36,0,0,1-4.86-5.85Z" fill="#322f31" opacity="0.29"/><path d="M47.53,51.45c-.82,1.1-3.17,2.3-6.24,1s-4.6-3.45-4.89-5.65Z" fill="#312e30" opacity="0.3"/><path d="M47.51,51.44c-.78,1.05-3.12,2.11-6.19.84s-4.65-3.37-4.91-5.45Z" fill="#302d2f" opacity="0.32"/><path d="M47.49,51.43c-.73,1-3.08,1.92-6.14.64s-4.71-3.29-4.94-5.25Z" fill="#2f2c2e" opacity="0.33"/><path d="M47.48,51.43c-.69.94-3,1.72-6.09.45s-4.76-3.21-5-5.05Z" fill="#2e2b2d" opacity="0.34"/><path d="M47.46,51.42c-.64.89-3,1.53-6,.26s-4.81-3.13-5-4.85Z" fill="#2d2a2c" opacity="0.35"/><path d="M47.44,51.41c-.6.84-2.95,1.33-6,.07s-4.86-3.05-5-4.65Z" fill="#2c292b" opacity="0.37"/><path d="M47.42,51.4c-.55.79-2.91,1.14-5.94-.12s-4.91-3-5.05-4.45Z" fill="#2c292a" opacity="0.38"/><path d="M47.4,51.39c-.51.73-2.86.94-5.89-.32s-5-2.9-5.08-4.25Z" fill="#2b2829" opacity="0.39"/><path d="M47.38,51.39c-.46.68-2.82.75-5.84-.51s-5-2.82-5.11-4Z" fill="#2a2728" opacity="0.4"/><path d="M47.36,51.38c-.42.63-2.78.55-5.79-.7s-5.07-2.74-5.13-3.85Z" fill="#292627" opacity="0.41"/><path d="M47.34,51.37c-.37.57-2.73.36-5.74-.89s-5.12-2.66-5.16-3.64Z" fill="#282526" opacity="0.43"/><path d="M47.32,51.36c-.33.52-2.69.17-5.69-1.08s-5.17-2.58-5.19-3.44Z" fill="#272425" opacity="0.44"/><path d="M47.31,51.36c-.28.47-2.65,0-5.65-1.28s-5.23-2.5-5.22-3.24Z" fill="#262324" opacity="0.45"/><path d="M47.29,51.35c-.24.41-2.6-.22-5.6-1.47s-5.28-2.42-5.25-3Z" fill="#262223" opacity="0.46"/><path d="M47.27,51.34c-.2.36-2.56-.42-5.55-1.66s-5.33-2.34-5.27-2.84Z" fill="#252122" opacity="0.48"/><path d="M47.25,51.33c-.15.31-2.52-.61-5.5-1.85s-5.38-2.26-5.3-2.64Z" fill="#242021" opacity="0.49"/><path d="M47.23,51.32c-.11.26-2.47-.81-5.45-2s-5.43-2.18-5.33-2.44Z" fill="#231f20" opacity="0.5"/></g><polygon points="35.05 35.89 7.08 34.55 48 51.62 35.05 35.89" fill="#9c342e"/><polygon points="50.06 0 48.78 6.42 72.17 6.6 50.06 0" fill="#9c342e"/><g opacity="0.4"><path d="M48.93,6.42c-.71-.89.53-6.36,1.11-6.2C54.23,1.35,59.45,3,72.17,6.6Z" fill="#464648" opacity="0"/><path d="M49,6.42c-.69-.88.63-6.23,1.35-6.05,4.25,1,9.44,2.73,21.85,6.24Z" fill="#454547" opacity="0.01"/><path d="M49,6.42c-.68-.87.74-6.09,1.58-5.91,4.31.93,9.48,2.66,21.58,6.09Z" fill="#444446" opacity="0.02"/><path d="M49,6.42c-.66-.85.84-6,1.81-5.76,4.36.87,9.51,2.59,21.3,5.94Z" fill="#434345" opacity="0.04"/><path d="M49.08,6.42c-.64-.84.95-5.82,2-5.61,4.4.81,9.54,2.52,21,5.8Z" fill="#434244" opacity="0.05"/><path d="M49.12,6.42C48.49,5.59,50.17.74,51.4,1,55.85,1.72,61,3.41,72.15,6.6Z" fill="#424143" opacity="0.06"/><path d="M49.16,6.42c-.61-.81,1.16-5.54,2.52-5.32,4.49.72,9.61,2.39,20.47,5.5Z" fill="#414042" opacity="0.07"/><path d="M49.2,6.42c-.59-.8,1.26-5.4,2.75-5.17,4.53.69,9.64,2.32,20.19,5.36Z" fill="#403f41" opacity="0.09"/><path d="M49.23,6.42c-.57-.79,1.37-5.26,3-5,4.57.66,9.68,2.25,19.92,5.21Z" fill="#3f3e40" opacity="0.1"/><path d="M49.27,6.42c-.55-.77,1.47-5.12,3.22-4.88,4.61.63,9.71,2.18,19.64,5.06Z" fill="#3e3d3f" opacity="0.11"/><path d="M49.31,6.42c-.54-.76,1.57-5,3.45-4.73,4.65.6,9.74,2.11,19.36,4.91Z" fill="#3d3c3e" opacity="0.12"/><path d="M49.35,6.42C48.83,5.67,51,1.59,53,1.84c4.7.57,9.78,2,19.09,4.77Z" fill="#3d3c3d" opacity="0.13"/><path d="M49.38,6.42c-.5-.74,1.78-4.69,3.92-4.44C58,2.53,63.12,4,72.11,6.6Z" fill="#3c3b3c" opacity="0.15"/><path d="M49.42,6.42c-.49-.72,1.88-4.54,4.16-4.29C58.35,2.66,63.42,4,72.11,6.6Z" fill="#3b3a3b" opacity="0.16"/><path d="M49.46,6.42c-.47-.71,2-4.4,4.39-4.15,4.82.5,9.88,1.84,18.26,4.33Z" fill="#3a393a" opacity="0.17"/><path d="M49.5,6.42c-.45-.7,2.09-4.25,4.62-4C59,2.91,64,4.2,72.1,6.6Z" fill="#393839" opacity="0.18"/><path d="M49.54,6.42c-.43-.68,2.19-4.1,4.86-3.85,4.9.46,9.95,1.7,17.7,4Z" fill="#383738" opacity="0.2"/><path d="M49.57,6.42c-.42-.67,2.3-4,5.09-3.71,4.94.44,10,1.63,17.42,3.88Z" fill="#373637" opacity="0.21"/><path d="M49.61,6.42c-.4-.66,2.4-3.81,5.33-3.56,5,.42,10,1.57,17.15,3.74Z" fill="#373536" opacity="0.22"/><path d="M49.65,6.42c-.38-.64,2.5-3.66,5.56-3.41A77.3,77.3,0,0,1,72.08,6.6Z" fill="#363435" opacity="0.23"/><path d="M49.69,6.42c-.36-.63,2.61-3.51,5.79-3.26A73.5,73.5,0,0,1,72.07,6.6Z" fill="#353334" opacity="0.24"/><path d="M49.72,6.42c-.35-.62,2.71-3.36,6-3.12A70,70,0,0,1,72.07,6.6Z" fill="#343234" opacity="0.26"/><path d="M49.76,6.42c-.33-.61,2.81-3.21,6.26-3a66.88,66.88,0,0,1,16,3.15Z" fill="#333133" opacity="0.27"/><path d="M49.8,6.42c-.31-.59,2.92-3.05,6.5-2.82a64,64,0,0,1,15.76,3Z" fill="#323032" opacity="0.28"/><path d="M49.84,6.43c-.29-.58,3-2.9,6.73-2.68A61.38,61.38,0,0,1,72.05,6.6Z" fill="#322f31" opacity="0.29"/><path d="M49.88,6.43c-.28-.57,3.12-2.75,7-2.53A59,59,0,0,1,72,6.6Z" fill="#312e30" opacity="0.3"/><path d="M49.91,6.43c-.26-.55,3.23-2.59,7.2-2.38A56.81,56.81,0,0,1,72,6.6Z" fill="#302d2f" opacity="0.32"/><path d="M50,6.43c-.24-.54,3.33-2.44,7.43-2.24A54.84,54.84,0,0,1,72,6.6Z" fill="#2f2c2e" opacity="0.33"/><path d="M50,6.43c-.22-.53,3.43-2.29,7.67-2.09A53.06,53.06,0,0,1,72,6.6Z" fill="#2e2b2d" opacity="0.34"/><path d="M50,6.43c-.21-.52,3.54-2.13,7.9-1.94,5.43.23,10.38.81,14.1,2.12Z" fill="#2d2a2c" opacity="0.35"/><path d="M50.07,6.43c-.19-.5,3.64-2,8.14-1.8,5.47.22,10.41.75,13.82,2Z" fill="#2c292b" opacity="0.37"/><path d="M50.1,6.43c-.17-.49,3.74-1.82,8.37-1.65C64,5,68.92,5.45,72,6.6Z" fill="#2c292a" opacity="0.38"/><path d="M50.14,6.43C50,6,54,4.77,58.74,4.92,64.3,5.11,69.22,5.53,72,6.6Z" fill="#2b2829" opacity="0.39"/><path d="M50.18,6.43C50,6,54.13,4.92,59,5.07c5.6.17,10.51.54,13,1.53Z" fill="#2a2728" opacity="0.4"/><path d="M50.22,6.43C50.1,6,54.27,5.08,59.29,5.22c5.64.15,10.55.47,12.72,1.38Z" fill="#292627" opacity="0.41"/><path d="M50.25,6.43c-.1-.44,4.16-1.19,9.31-1.06,5.68.14,10.58.4,12.44,1.24Z" fill="#282526" opacity="0.43"/><path d="M50.29,6.43c-.08-.42,4.26-1,9.54-.92,5.72.12,10.61.33,12.16,1.09Z" fill="#272425" opacity="0.44"/><path d="M50.33,6.43c-.07-.41,4.36-.87,9.77-.77,5.76.11,10.65.27,11.89.94Z" fill="#262324" opacity="0.45"/><path d="M50.37,6.43c0-.4,4.47-.71,10-.62C66.18,5.9,71.06,6,72,6.6Z" fill="#262223" opacity="0.46"/><path d="M50.41,6.43C50.37,6,55,5.88,60.65,6,66.5,6,71.36,6.08,72,6.6Z" fill="#252122" opacity="0.48"/><path d="M50.44,6.43c0-.37,4.67-.38,10.48-.33s10.75.06,11.06.5Z" fill="#242021" opacity="0.49"/><path d="M50.48,6.43c0-.36,4.78-.23,10.71-.18S72,6.24,72,6.6Z" fill="#231f20" opacity="0.5"/></g><g opacity="0.4"><path d="M35.17,35.9c.33,1.76,9.39,10.59,5.46,10.82C35.79,47,25.06,40.2,7.08,34.55Z" fill="#464648" opacity="0"/><path d="M35.13,35.9c.32,1.73,9,10.33,5,10.55-4.9.27-15.5-6.37-33-11.89Z" fill="#454547" opacity="0.01"/><path d="M35.08,35.89c.31,1.69,8.65,10.08,4.56,10.28-5,.25-15.44-6.22-32.54-11.62Z" fill="#444446" opacity="0.02"/><path d="M35,35.89c.3,1.66,8.28,9.82,4.11,10-5,.24-15.38-6.08-32-11.35Z" fill="#434345" opacity="0.04"/><path d="M35,35.89c.29,1.63,7.91,9.56,3.66,9.74-5.07.22-15.32-5.93-31.54-11.07Z" fill="#434244" opacity="0.05"/><path d="M34.94,35.89c.29,1.6,7.54,9.31,3.21,9.47-5.13.21-15.26-5.78-31-10.8Z" fill="#424143" opacity="0.06"/><path d="M34.9,35.88c.28,1.57,7.17,9,2.76,9.19-5.18.19-15.2-5.64-30.54-10.52Z" fill="#414042" opacity="0.07"/><path d="M34.85,35.88c.27,1.53,6.8,8.78,2.31,8.92C31.93,45,22,39.31,7.12,34.55Z" fill="#403f41" opacity="0.09"/><path d="M34.81,35.88c.26,1.5,6.43,8.52,1.86,8.65-5.3.15-15.07-5.35-29.54-10Z" fill="#3f3e40" opacity="0.1"/><path d="M34.76,35.88c.25,1.47,6.06,8.27,1.41,8.38-5.35.13-15-5.2-29-9.7Z" fill="#3e3d3f" opacity="0.11"/><path d="M34.72,35.88c.24,1.44,5.69,8,1,8.11-5.41.12-14.95-5.05-28.54-9.43Z" fill="#3d3c3e" opacity="0.12"/><path d="M34.67,35.87c.23,1.4,5.32,7.75.52,7.84-5.47.1-14.89-4.91-28-9.16Z" fill="#3d3c3d" opacity="0.13"/><path d="M34.62,35.87c.23,1.37,5,7.49.07,7.57-5.52.08-14.82-4.76-27.54-8.88Z" fill="#3c3b3c" opacity="0.15"/><path d="M34.58,35.87c.22,1.34,4.58,7.23-.38,7.3-5.58.07-14.76-4.61-27-8.61Z" fill="#3b3a3b" opacity="0.16"/><path d="M34.53,35.87c.21,1.31,4.21,7-.83,7-5.64.05-14.7-4.47-26.53-8.34Z" fill="#3a393a" opacity="0.17"/><path d="M34.49,35.87c.2,1.28,3.84,6.72-1.28,6.75-5.69,0-14.64-4.32-26-8.06Z" fill="#393839" opacity="0.18"/><path d="M34.44,35.86c.19,1.24,3.47,6.46-1.73,6.48-5.75,0-14.58-4.17-25.53-7.79Z" fill="#383738" opacity="0.2"/><path d="M34.4,35.86c.18,1.21,3.1,6.2-2.18,6.21-5.81,0-14.52-4-25-7.52Z" fill="#373637" opacity="0.21"/><path d="M34.35,35.86c.17,1.18,2.73,5.95-2.63,5.94-5.86,0-14.45-3.88-24.53-7.24Z" fill="#373536" opacity="0.22"/><path d="M34.3,35.86c.17,1.15,2.36,5.69-3.08,5.67-5.92,0-14.39-3.73-24-7Z" fill="#363435" opacity="0.23"/><path d="M34.26,35.85c.16,1.11,2,5.43-3.53,5.4-6,0-14.33-3.59-23.53-6.69Z" fill="#353334" opacity="0.24"/><path d="M34.21,35.85c.15,1.08,1.62,5.18-4,5.13-6-.05-14.27-3.44-23-6.42Z" fill="#343234" opacity="0.26"/><path d="M34.17,35.85c.14,1,1.25,4.92-4.42,4.86-6.09-.07-14.21-3.29-22.53-6.15Z" fill="#333133" opacity="0.27"/><path d="M34.12,35.85c.13,1,.88,4.66-4.87,4.58-6.15-.08-14.15-3.15-22-5.87Z" fill="#323032" opacity="0.28"/><path d="M34.08,35.85c.12,1,.51,4.41-5.32,4.31-6.21-.1-14.08-3-21.53-5.6Z" fill="#322f31" opacity="0.29"/><path d="M34,35.84c.11,1,.14,4.15-5.77,4-6.26-.11-14-2.85-21-5.33Z" fill="#312e30" opacity="0.3"/><path d="M34,35.84c.11.92-.23,3.89-6.22,3.77-6.32-.13-14-2.71-20.53-5.05Z" fill="#302d2f" opacity="0.32"/><path d="M33.94,35.84c.1.89-.6,3.64-6.67,3.5-6.38-.14-13.9-2.56-20-4.78Z" fill="#2f2c2e" opacity="0.33"/><path d="M33.89,35.84c.09.86-1,3.39-7.12,3.23-6.43-.14-13.84-2.41-19.52-4.51Z" fill="#2e2b2d" opacity="0.34"/><path d="M33.85,35.84c.08.82-1.34,3.13-7.57,3-6.49-.16-13.78-2.27-19-4.23Z" fill="#2d2a2c" opacity="0.35"/><path d="M33.8,35.83c.07.79-1.71,2.88-8,2.69a60.36,60.36,0,0,1-18.52-4Z" fill="#2c292b" opacity="0.37"/><path d="M33.76,35.83c.06.76-2.08,2.62-8.47,2.42a58.29,58.29,0,0,1-18-3.68Z" fill="#2c292a" opacity="0.38"/><path d="M33.71,35.83c.06.73-2.45,2.36-8.92,2.14A56.48,56.48,0,0,1,7.27,34.56Z" fill="#2b2829" opacity="0.39"/><path d="M33.67,35.83c0,.7-2.82,2.1-9.36,1.87-6.72-.22-13.53-1.68-17-3.14Z" fill="#2a2728" opacity="0.4"/><path d="M33.62,35.82c0,.66-3.2,1.85-9.81,1.6C17,37.19,10.34,35.89,7.29,34.56Z" fill="#292627" opacity="0.41"/><path d="M33.57,35.82c0,.63-3.57,1.59-10.26,1.33s-13.41-1.39-16-2.59Z" fill="#282526" opacity="0.43"/><path d="M33.53,35.82c0,.6-3.94,1.33-10.71,1.06S9.47,35.64,7.3,34.56Z" fill="#272425" opacity="0.44"/><path d="M33.48,35.82c0,.57-4.31,1.08-11.16.79s-13.28-1.1-15-2Z" fill="#262324" opacity="0.45"/><path d="M33.44,35.82c0,.53-4.68.82-11.61.52S8.61,35.38,7.31,34.56Z" fill="#262223" opacity="0.46"/><path d="M33.39,35.81c0,.5-5,.56-12.06.25s-13.16-.8-14-1.5Z" fill="#252122" opacity="0.48"/><path d="M33.35,35.81c0,.47-5.42.3-12.51,0s-13.1-.66-13.52-1.22Z" fill="#242021" opacity="0.49"/><path d="M33.3,35.81c0,.44-5.79,0-13-.3s-13-.51-13-.95Z" fill="#231f20" opacity="0.5"/></g><polygon points="72.17 6.6 0 6.03 7.08 34.55 63.01 37.23 72.17 6.6" fill="#9c342e"/><path d="M7.09,9.74,8,9.7l-.65,1.66a1.89,1.89,0,0,1,1.06.35,1.12,1.12,0,0,1,.37,1,1.19,1.19,0,0,1-.37,1.07,2.26,2.26,0,0,1-1.23.28,2.25,2.25,0,0,1-1.25-.28,1.18,1.18,0,0,1-.35-1.07A2.25,2.25,0,0,1,5.68,12a1,1,0,0,1,.13-.24Zm3.79,0,.89,0-.65,1.66a1.89,1.89,0,0,1,1.06.35,1.12,1.12,0,0,1,.37,1,1.19,1.19,0,0,1-.37,1.07,2.25,2.25,0,0,1-1.23.28,2.25,2.25,0,0,1-1.25-.28,1.18,1.18,0,0,1-.35-1.07A2.25,2.25,0,0,1,9.47,12a1,1,0,0,1,.13-.24Z" fill="#fff"/><path d="M58.92,33.62l-.89,0L58.68,32a1.89,1.89,0,0,1-1.06-.35,1.12,1.12,0,0,1-.37-1,1.18,1.18,0,0,1,.37-1.07,2.87,2.87,0,0,1,2.47,0,1.17,1.17,0,0,1,.36,1.07,2.25,2.25,0,0,1-.11.72,1.07,1.07,0,0,1-.13.24Zm-3.79,0-.89,0L54.89,32a1.89,1.89,0,0,1-1.06-.35,1.12,1.12,0,0,1-.37-1,1.19,1.19,0,0,1,.37-1.07,2.27,2.27,0,0,1,1.23-.28,2.25,2.25,0,0,1,1.24.28,1.18,1.18,0,0,1,.35,1.07,2.25,2.25,0,0,1-.11.72,1.06,1.06,0,0,1-.13.24Z" fill="#fff"/></g></g></svg>