<svg id="Layer_1" data-name="Layer 1" xmlns="http://www.w3.org/2000/svg" viewBox="0 0 20 20"><title>paper-speach</title><g opacity="0.4"><path d="M19.52,18.63c0-.43-4-.79-8.9-.79s-8.89.35-8.89.79,4,.79,8.89.79,8.9-.35,8.9-.79" fill="#c2c6c6" opacity="0"/><path d="M19.46,18.63c0-.43-4-.78-8.84-.78s-8.84.35-8.84.78,4,.78,8.84.78,8.84-.35,8.84-.78" fill="#c1c5c5" opacity="0.01"/><path d="M19.41,18.63c0-.43-3.93-.78-8.79-.78s-8.78.35-8.78.78,3.93.78,8.78.78,8.79-.35,8.79-.78" fill="#c0c4c4" opacity="0.01"/><path d="M19.35,18.63c0-.43-3.91-.77-8.73-.77s-8.73.35-8.73.77,3.91.77,8.73.77,8.73-.35,8.73-.77" fill="#bfc3c3" opacity="0.02"/><path d="M19.3,18.63c0-.42-3.88-.76-8.68-.76s-8.67.34-8.67.76,3.88.77,8.67.77,8.68-.34,8.68-.77" fill="#bec2c2" opacity="0.02"/><path d="M19.24,18.63c0-.42-3.86-.76-8.62-.76S2,18.21,2,18.63s3.86.76,8.62.76,8.62-.34,8.62-.76" fill="#bdc1c1" opacity="0.03"/><path d="M19.19,18.63c0-.42-3.83-.75-8.57-.75s-8.56.34-8.56.75,3.83.76,8.56.76,8.57-.34,8.57-.76" fill="#bcc0c0" opacity="0.03"/><path d="M19.13,18.63c0-.41-3.81-.75-8.51-.75s-8.51.33-8.51.75,3.81.75,8.51.75,8.51-.34,8.51-.75" fill="#bbbfbf" opacity="0.04"/><path d="M19.08,18.63c0-.41-3.78-.74-8.45-.74s-8.45.33-8.45.74,3.79.74,8.45.74,8.45-.33,8.45-.74" fill="#babebe" opacity="0.04"/><path d="M19,18.63c0-.41-3.76-.74-8.4-.74s-8.4.33-8.4.74,3.76.74,8.4.74S19,19,19,18.63" fill="#b9bdbd" opacity="0.05"/><path d="M19,18.63c0-.4-3.73-.73-8.34-.73s-8.34.33-8.34.73,3.74.73,8.34.73S19,19,19,18.63" fill="#b8bcbc" opacity="0.05"/><path d="M18.91,18.63c0-.4-3.71-.72-8.29-.72s-8.29.32-8.29.72,3.71.73,8.29.73,8.29-.32,8.29-.73" fill="#b7bbbb" opacity="0.06"/><path d="M18.86,18.63c0-.4-3.69-.72-8.23-.72s-8.23.32-8.23.72,3.69.72,8.23.72,8.23-.32,8.23-.72" fill="#b6baba" opacity="0.06"/><path d="M18.8,18.63c0-.39-3.66-.71-8.18-.71s-8.18.32-8.18.71,3.66.71,8.18.71,8.18-.32,8.18-.71" fill="#b5b9b9" opacity="0.07"/><path d="M18.75,18.63c0-.39-3.64-.71-8.12-.71s-8.12.32-8.12.71,3.64.71,8.12.71,8.12-.32,8.12-.71" fill="#b5b8b8" opacity="0.07"/><path d="M18.69,18.63c0-.39-3.61-.7-8.07-.7s-8.07.31-8.07.7,3.61.7,8.07.7,8.07-.31,8.07-.7" fill="#b4b7b7" opacity="0.08"/><path d="M18.64,18.63c0-.38-3.59-.7-8-.7s-8,.31-8,.7,3.59.7,8,.7,8-.31,8-.7" fill="#b3b6b6" opacity="0.08"/><path d="M18.58,18.63c0-.38-3.56-.69-8-.69s-8,.31-8,.69,3.56.69,8,.69,8-.31,8-.69" fill="#b2b5b5" opacity="0.09"/><path d="M18.53,18.63c0-.38-3.54-.68-7.9-.68s-7.9.31-7.9.68,3.54.69,7.9.69,7.9-.31,7.9-.69" fill="#b1b4b4" opacity="0.09"/><path d="M18.47,18.63c0-.37-3.51-.68-7.85-.68s-7.85.3-7.85.68,3.51.68,7.85.68,7.85-.3,7.85-.68" fill="#b0b3b3" opacity="0.1"/><path d="M18.42,18.63c0-.37-3.49-.67-7.79-.67s-7.79.3-7.79.67,3.49.67,7.79.67,7.79-.3,7.79-.67" fill="#afb2b2" opacity="0.1"/><path d="M18.36,18.63c0-.37-3.46-.67-7.74-.67s-7.74.3-7.74.67,3.46.67,7.74.67,7.74-.3,7.74-.67" fill="#aeb1b1" opacity="0.11"/><path d="M18.31,18.63c0-.36-3.44-.66-7.68-.66s-7.68.3-7.68.66,3.44.66,7.68.66,7.68-.3,7.68-.66" fill="#adb0b0" opacity="0.11"/><path d="M18.25,18.63c0-.36-3.41-.65-7.63-.65S3,18.27,3,18.63s3.42.66,7.63.66,7.63-.29,7.63-.66" fill="#acafaf" opacity="0.12"/><path d="M18.2,18.63c0-.36-3.39-.65-7.57-.65s-7.57.29-7.57.65,3.39.65,7.57.65,7.57-.29,7.57-.65" fill="#abaeae" opacity="0.13"/><path d="M18.14,18.63c0-.35-3.36-.64-7.52-.64s-7.52.29-7.52.64,3.37.65,7.52.65,7.52-.29,7.52-.65" fill="#aaadad" opacity="0.13"/><path d="M18.09,18.63c0-.35-3.34-.64-7.46-.64s-7.46.29-7.46.64,3.34.64,7.46.64,7.46-.29,7.46-.64" fill="#a9acac" opacity="0.14"/><path d="M18,18.63c0-.35-3.32-.63-7.41-.63s-7.41.28-7.41.63,3.32.63,7.41.63S18,19,18,18.63" fill="#a8abab" opacity="0.14"/><path d="M18,18.63c0-.35-3.29-.63-7.35-.63s-7.35.28-7.35.63,3.29.63,7.35.63S18,19,18,18.63" fill="#a7aaaa" opacity="0.15"/><path d="M17.92,18.63c0-.34-3.27-.62-7.3-.62s-7.3.28-7.3.62,3.27.62,7.3.62,7.3-.28,7.3-.62" fill="#a6a9a9" opacity="0.15"/><path d="M17.87,18.63c0-.34-3.24-.61-7.24-.61s-7.24.28-7.24.61,3.24.62,7.24.62,7.24-.28,7.24-.62" fill="#a5a8a8" opacity="0.16"/><path d="M17.81,18.63c0-.34-3.22-.61-7.19-.61s-7.19.27-7.19.61,3.22.61,7.19.61,7.19-.27,7.19-.61" fill="#a4a7a7" opacity="0.16"/><path d="M17.76,18.63c0-.33-3.19-.6-7.13-.6s-7.13.27-7.13.6,3.19.6,7.13.6,7.13-.27,7.13-.6" fill="#a3a6a6" opacity="0.17"/><path d="M17.7,18.63c0-.33-3.17-.6-7.08-.6s-7.08.27-7.08.6,3.17.6,7.08.6,7.08-.27,7.08-.6" fill="#a2a5a5" opacity="0.17"/><path d="M17.65,18.63c0-.33-3.14-.59-7-.59s-7,.26-7,.59,3.14.59,7,.59,7-.27,7-.59" fill="#a1a4a5" opacity="0.18"/><path d="M17.59,18.63c0-.32-3.12-.59-7-.59s-7,.26-7,.59,3.12.59,7,.59,7-.26,7-.59" fill="#a0a3a4" opacity="0.18"/><path d="M17.54,18.63c0-.32-3.09-.58-6.91-.58s-6.91.26-6.91.58,3.09.58,6.91.58,6.91-.26,6.91-.58" fill="#9fa2a3" opacity="0.19"/><path d="M17.48,18.63c0-.32-3.07-.57-6.86-.57s-6.86.26-6.86.57,3.07.58,6.86.58,6.86-.26,6.86-.58" fill="#9ea1a2" opacity="0.19"/><path d="M17.43,18.63c0-.31-3-.57-6.8-.57s-6.8.25-6.8.57,3,.57,6.8.57,6.8-.25,6.8-.57" fill="#9da0a1" opacity="0.2"/><path d="M17.37,18.63c0-.31-3-.56-6.75-.56s-6.75.25-6.75.56,3,.56,6.75.56,6.75-.25,6.75-.56" fill="#9c9fa0" opacity="0.2"/><path d="M17.32,18.63c0-.31-3-.56-6.69-.56s-6.69.25-6.69.56,3,.56,6.69.56,6.69-.25,6.69-.56" fill="#9b9e9f" opacity="0.21"/><path d="M17.26,18.63c0-.3-3-.55-6.64-.55S4,18.33,4,18.63s3,.55,6.64.55,6.64-.25,6.64-.55" fill="#9b9d9e" opacity="0.21"/><path d="M17.21,18.63c0-.3-2.95-.54-6.58-.54S4,18.33,4,18.63s2.95.55,6.58.55,6.58-.24,6.58-.55" fill="#9a9c9d" opacity="0.22"/><path d="M17.15,18.63c0-.3-2.92-.54-6.53-.54s-6.53.24-6.53.54,2.92.54,6.53.54,6.53-.24,6.53-.54" fill="#999b9c" opacity="0.22"/><path d="M17.09,18.63c0-.29-2.9-.53-6.47-.53s-6.47.24-6.47.53,2.9.53,6.47.53,6.47-.24,6.47-.53" fill="#989a9b" opacity="0.23"/><path d="M17,18.63c0-.29-2.87-.53-6.42-.53s-6.42.24-6.42.53,2.87.53,6.42.53S17,18.93,17,18.63" fill="#97999a" opacity="0.24"/><path d="M17,18.63c0-.29-2.85-.52-6.36-.52s-6.36.23-6.36.52,2.85.52,6.36.52S17,18.92,17,18.63" fill="#969899" opacity="0.24"/><path d="M16.93,18.63c0-.28-2.82-.52-6.31-.52s-6.3.23-6.3.52,2.82.52,6.3.52,6.31-.23,6.31-.52" fill="#959798" opacity="0.25"/><path d="M16.87,18.63c0-.28-2.8-.51-6.25-.51s-6.25.23-6.25.51,2.8.51,6.25.51,6.25-.23,6.25-.51" fill="#949697" opacity="0.25"/><path d="M16.82,18.63c0-.28-2.77-.5-6.2-.5s-6.19.23-6.19.5,2.77.51,6.19.51,6.2-.23,6.2-.51" fill="#939596" opacity="0.26"/><path d="M16.76,18.63c0-.28-2.75-.5-6.14-.5s-6.14.22-6.14.5,2.75.5,6.14.5,6.14-.22,6.14-.5" fill="#929495" opacity="0.26"/><path d="M16.71,18.63c0-.27-2.72-.49-6.09-.49s-6.08.22-6.08.49,2.72.49,6.08.49,6.09-.22,6.09-.49" fill="#919394" opacity="0.27"/><path d="M16.65,18.63c0-.27-2.7-.49-6-.49s-6,.22-6,.49,2.7.49,6,.49,6-.22,6-.49" fill="#909293" opacity="0.27"/><path d="M16.6,18.63c0-.27-2.67-.48-6-.48s-6,.22-6,.48,2.68.48,6,.48,6-.22,6-.48" fill="#8f9192" opacity="0.28"/><path d="M16.54,18.63c0-.26-2.65-.48-5.92-.48s-5.92.21-5.92.48,2.65.48,5.92.48,5.92-.21,5.92-.48" fill="#8e9091" opacity="0.28"/><path d="M16.49,18.63c0-.26-2.63-.47-5.87-.47s-5.86.21-5.86.47,2.63.47,5.86.47,5.87-.21,5.87-.47" fill="#8d8f90" opacity="0.29"/><path d="M16.43,18.63c0-.26-2.6-.46-5.81-.46s-5.81.21-5.81.46,2.6.47,5.81.47,5.81-.21,5.81-.47" fill="#8c8e8f" opacity="0.29"/><path d="M16.38,18.63c0-.25-2.58-.46-5.76-.46s-5.75.21-5.75.46,2.58.46,5.75.46,5.76-.21,5.76-.46" fill="#8b8d8e" opacity="0.3"/><path d="M16.32,18.63c0-.25-2.55-.45-5.7-.45s-5.7.2-5.7.45,2.55.45,5.7.45,5.7-.2,5.7-.45" fill="#8a8c8d" opacity="0.3"/><path d="M16.27,18.63c0-.25-2.53-.45-5.65-.45S5,18.39,5,18.63s2.53.45,5.64.45,5.65-.2,5.65-.45" fill="#898b8c" opacity="0.31"/><path d="M16.21,18.63c0-.24-2.5-.44-5.59-.44S5,18.39,5,18.63s2.5.44,5.59.44,5.59-.2,5.59-.44" fill="#888a8b" opacity="0.31"/><path d="M16.16,18.63c0-.24-2.48-.43-5.54-.43s-5.53.19-5.53.43,2.48.44,5.53.44,5.54-.19,5.54-.44" fill="#87898a" opacity="0.32"/><path d="M16.1,18.63c0-.24-2.45-.43-5.48-.43s-5.48.19-5.48.43,2.45.43,5.48.43,5.48-.19,5.48-.43" fill="#868889" opacity="0.32"/><path d="M16,18.63c0-.23-2.43-.42-5.43-.42s-5.42.19-5.42.42,2.43.42,5.42.42S16,18.87,16,18.63" fill="#858788" opacity="0.33"/><path d="M16,18.63c0-.23-2.4-.42-5.37-.42s-5.37.19-5.37.42,2.4.42,5.37.42S16,18.87,16,18.63" fill="#848687" opacity="0.33"/><path d="M15.94,18.63c0-.23-2.38-.41-5.31-.41s-5.31.18-5.31.41,2.38.41,5.31.41,5.31-.18,5.31-.41" fill="#838586" opacity="0.34"/><path d="M15.88,18.63c0-.22-2.35-.41-5.26-.41s-5.26.18-5.26.41,2.35.41,5.26.41,5.26-.18,5.26-.41" fill="#828485" opacity="0.34"/><path d="M15.83,18.63c0-.22-2.33-.4-5.2-.4s-5.2.18-5.2.4,2.33.4,5.2.4,5.2-.18,5.2-.4" fill="#828384" opacity="0.35"/><path d="M15.77,18.63c0-.22-2.3-.39-5.15-.39s-5.15.18-5.15.39,2.31.4,5.15.4,5.15-.18,5.15-.4" fill="#818283" opacity="0.36"/><path d="M15.72,18.63c0-.21-2.28-.39-5.09-.39s-5.09.17-5.09.39,2.28.39,5.09.39,5.09-.17,5.09-.39" fill="#808182" opacity="0.36"/><path d="M15.66,18.63c0-.21-2.26-.38-5-.38s-5,.17-5,.38,2.26.38,5,.38,5-.17,5-.38" fill="#7f8081" opacity="0.37"/><path d="M15.61,18.63c0-.21-2.23-.38-5-.38s-5,.17-5,.38,2.23.38,5,.38,5-.17,5-.38" fill="#7e7f80" opacity="0.37"/><path d="M15.55,18.63c0-.2-2.21-.37-4.93-.37s-4.93.17-4.93.37S7.9,19,10.62,19s4.93-.17,4.93-.37" fill="#7d7e7f" opacity="0.38"/><path d="M15.5,18.63c0-.2-2.18-.37-4.87-.37s-4.87.16-4.87.37,2.18.37,4.87.37,4.87-.16,4.87-.37" fill="#7c7d7e" opacity="0.38"/><path d="M15.44,18.63c0-.2-2.16-.36-4.82-.36s-4.82.16-4.82.36S8,19,10.62,19s4.82-.16,4.82-.36" fill="#7b7c7d" opacity="0.39"/><path d="M15.39,18.63c0-.2-2.13-.35-4.76-.35s-4.76.16-4.76.35S8,19,10.62,19s4.76-.16,4.76-.36" fill="#7a7b7c" opacity="0.39"/><path d="M15.33,18.63c0-.19-2.11-.35-4.71-.35s-4.71.16-4.71.35S8,19,10.62,19s4.71-.16,4.71-.35" fill="#797a7b" opacity="0.4"/><path d="M15.28,18.63c0-.19-2.08-.34-4.65-.34S6,18.44,6,18.63s2.08.34,4.65.34,4.65-.15,4.65-.34" fill="#78797a" opacity="0.4"/><path d="M15.22,18.63c0-.19-2.06-.34-4.6-.34s-4.6.15-4.6.34,2.06.34,4.6.34,4.6-.15,4.6-.34" fill="#777879" opacity="0.41"/><path d="M15.17,18.63c0-.18-2-.33-4.54-.33s-4.54.15-4.54.33,2,.33,4.54.33,4.54-.15,4.54-.33" fill="#767778" opacity="0.41"/><path d="M15.11,18.63c0-.18-2-.32-4.49-.32s-4.49.15-4.49.32,2,.33,4.49.33,4.49-.15,4.49-.33" fill="#757677" opacity="0.42"/><path d="M15.06,18.63c0-.18-2-.32-4.43-.32s-4.43.14-4.43.32,2,.32,4.43.32,4.43-.14,4.43-.32" fill="#747576" opacity="0.42"/><path d="M15,18.63c0-.17-2-.31-4.38-.31s-4.38.14-4.38.31,2,.31,4.38.31S15,18.81,15,18.63" fill="#737475" opacity="0.43"/><path d="M14.95,18.63c0-.17-1.94-.31-4.32-.31s-4.32.14-4.32.31,1.94.31,4.32.31,4.32-.14,4.32-.31" fill="#727374" opacity="0.43"/><path d="M14.89,18.63a15.37,15.37,0,0,0-4.27-.3,15.37,15.37,0,0,0-4.27.3,15.28,15.28,0,0,0,4.27.3,15.28,15.28,0,0,0,4.27-.3" fill="#717273" opacity="0.44"/><path d="M14.84,18.63a15.27,15.27,0,0,0-4.21-.3,15.26,15.26,0,0,0-4.21.3,15.17,15.17,0,0,0,4.21.3,15.18,15.18,0,0,0,4.21-.3" fill="#707172" opacity="0.44"/><path d="M14.78,18.63a15.17,15.17,0,0,0-4.16-.29,15.16,15.16,0,0,0-4.16.29,15.07,15.07,0,0,0,4.16.29,15.07,15.07,0,0,0,4.16-.29" fill="#6f7071" opacity="0.45"/><path d="M14.73,18.63a15.06,15.06,0,0,0-4.1-.28,15.06,15.06,0,0,0-4.1.28,15,15,0,0,0,4.1.29,15,15,0,0,0,4.1-.29" fill="#6e6f70" opacity="0.45"/><path d="M14.67,18.63a15,15,0,0,0-4-.28,15,15,0,0,0-4,.28,14.87,14.87,0,0,0,4,.28,14.87,14.87,0,0,0,4-.28" fill="#6d6e6f" opacity="0.46"/><path d="M14.62,18.63a14.86,14.86,0,0,0-4-.27,14.86,14.86,0,0,0-4,.27,14.77,14.77,0,0,0,4,.27,14.77,14.77,0,0,0,4-.27" fill="#6c6d6e" opacity="0.46"/><path d="M14.56,18.63a14.77,14.77,0,0,0-3.94-.27,14.76,14.76,0,0,0-3.94.27,14.67,14.67,0,0,0,3.94.27,14.67,14.67,0,0,0,3.94-.27" fill="#6b6c6d" opacity="0.47"/><path d="M14.51,18.63a14.67,14.67,0,0,0-3.88-.26,14.67,14.67,0,0,0-3.88.26,14.57,14.57,0,0,0,3.88.26,14.58,14.58,0,0,0,3.88-.26" fill="#6a6b6c" opacity="0.48"/><path d="M14.45,18.63a14.58,14.58,0,0,0-3.83-.26,14.57,14.57,0,0,0-3.83.26,14.48,14.48,0,0,0,3.83.26,14.48,14.48,0,0,0,3.83-.26" fill="#696a6b" opacity="0.48"/><path d="M14.4,18.63a14.49,14.49,0,0,0-3.77-.25,14.48,14.48,0,0,0-3.77.25,14.39,14.39,0,0,0,3.77.25,14.39,14.39,0,0,0,3.77-.25" fill="#68696a" opacity="0.49"/><path d="M14.34,18.63a14.4,14.4,0,0,0-3.72-.24,14.39,14.39,0,0,0-3.72.24,14.3,14.3,0,0,0,3.72.24,14.3,14.3,0,0,0,3.72-.24" fill="#686869" opacity="0.49"/><path d="M14.29,18.63a14.31,14.31,0,0,0-3.66-.24A14.31,14.31,0,0,0,7,18.63a14.21,14.21,0,0,0,3.66.24,14.21,14.21,0,0,0,3.66-.24" fill="#676768" opacity="0.5"/><path d="M14.23,18.63a14.23,14.23,0,0,0-3.61-.23A14.22,14.22,0,0,0,7,18.63a14.12,14.12,0,0,0,3.61.23,14.13,14.13,0,0,0,3.61-.23" fill="#666667" opacity="0.5"/><path d="M14.18,18.63a14.14,14.14,0,0,0-3.55-.23,14.14,14.14,0,0,0-3.55.23,14,14,0,0,0,3.55.23,14,14,0,0,0,3.55-.23" fill="#656566" opacity="0.51"/><path d="M14.12,18.63a14.07,14.07,0,0,0-3.5-.22,14.06,14.06,0,0,0-3.5.22,14,14,0,0,0,3.5.22,14,14,0,0,0,3.5-.22" fill="#646465" opacity="0.51"/><path d="M14.07,18.63a14,14,0,0,0-3.44-.21,14,14,0,0,0-3.44.21,13.88,13.88,0,0,0,3.44.22,13.89,13.89,0,0,0,3.44-.22" fill="#636364" opacity="0.52"/><path d="M14,18.63a13.92,13.92,0,0,0-3.39-.21,13.91,13.91,0,0,0-3.39.21,13.81,13.81,0,0,0,3.39.21A13.81,13.81,0,0,0,14,18.63" fill="#626263" opacity="0.52"/><path d="M14,18.63a13.85,13.85,0,0,0-3.33-.2,13.84,13.84,0,0,0-3.33.2,13.74,13.74,0,0,0,3.33.2,13.74,13.74,0,0,0,3.33-.2" fill="#616163" opacity="0.53"/><path d="M13.9,18.63a13.78,13.78,0,0,0-3.28-.2,13.78,13.78,0,0,0-3.28.2,13.67,13.67,0,0,0,3.28.2,13.68,13.68,0,0,0,3.28-.2" fill="#606062" opacity="0.53"/><path d="M13.85,18.63a13.72,13.72,0,0,0-3.22-.19,13.72,13.72,0,0,0-3.22.19,13.61,13.61,0,0,0,3.22.19,13.62,13.62,0,0,0,3.22-.19" fill="#5f5f61" opacity="0.54"/><path d="M13.79,18.63a13.67,13.67,0,0,0-3.17-.19,13.66,13.66,0,0,0-3.17.19,13.55,13.55,0,0,0,3.17.19,13.56,13.56,0,0,0,3.17-.19" fill="#5e5e60" opacity="0.54"/><path d="M13.74,18.63a13.61,13.61,0,0,0-3.11-.18,13.61,13.61,0,0,0-3.11.18,13.5,13.5,0,0,0,3.11.18,13.5,13.5,0,0,0,3.11-.18" fill="#5d5d5f" opacity="0.55"/><path d="M13.68,18.63a13.57,13.57,0,0,0-3.06-.17,13.56,13.56,0,0,0-3.06.17,13.45,13.45,0,0,0,3.06.18,13.46,13.46,0,0,0,3.06-.18" fill="#5c5c5e" opacity="0.55"/><path d="M13.62,18.63a13.53,13.53,0,0,0-3-.17,13.52,13.52,0,0,0-3,.17,13.41,13.41,0,0,0,3,.17,13.42,13.42,0,0,0,3-.17" fill="#5b5b5d" opacity="0.56"/><path d="M13.57,18.63a13.5,13.5,0,0,0-2.95-.16,13.49,13.49,0,0,0-2.95.16,13.37,13.37,0,0,0,2.95.16,13.38,13.38,0,0,0,2.95-.16" fill="#5a5a5c" opacity="0.56"/><path d="M13.51,18.63a13.47,13.47,0,0,0-2.89-.16,13.47,13.47,0,0,0-2.89.16,13.35,13.35,0,0,0,2.89.16,13.35,13.35,0,0,0,2.89-.16" fill="#59595b" opacity="0.57"/><path d="M13.46,18.63a13.46,13.46,0,0,0-2.84-.15,13.45,13.45,0,0,0-2.84.15,13.33,13.33,0,0,0,2.84.15,13.33,13.33,0,0,0,2.84-.15" fill="#58585a" opacity="0.57"/><path d="M13.4,18.63a13.45,13.45,0,0,0-2.78-.15,13.44,13.44,0,0,0-2.78.15,13.32,13.32,0,0,0,2.78.15,13.32,13.32,0,0,0,2.78-.15" fill="#575759" opacity="0.58"/><path d="M13.35,18.63a13.46,13.46,0,0,0-2.73-.14,13.45,13.45,0,0,0-2.72.14,13.32,13.32,0,0,0,2.72.14,13.32,13.32,0,0,0,2.73-.14" fill="#565658" opacity="0.59"/><path d="M13.29,18.63a13.47,13.47,0,0,0-2.67-.13A13.46,13.46,0,0,0,8,18.63a13.33,13.33,0,0,0,2.67.13,13.34,13.34,0,0,0,2.67-.13" fill="#555557" opacity="0.59"/><path d="M13.24,18.63a13.5,13.5,0,0,0-2.62-.13A13.49,13.49,0,0,0,8,18.63a13.35,13.35,0,0,0,2.61.13,13.36,13.36,0,0,0,2.62-.13" fill="#545456" opacity="0.6"/><path d="M13.18,18.63a13.55,13.55,0,0,0-2.56-.12,13.54,13.54,0,0,0-2.56.12,13.4,13.4,0,0,0,2.56.12,13.4,13.4,0,0,0,2.56-.12" fill="#535355" opacity="0.6"/><path d="M13.13,18.63a13.61,13.61,0,0,0-2.51-.12,13.6,13.6,0,0,0-2.5.12,13.45,13.45,0,0,0,2.5.12,13.46,13.46,0,0,0,2.51-.12" fill="#525254" opacity="0.61"/><path d="M13.07,18.63a13.7,13.7,0,0,0-2.45-.11,13.69,13.69,0,0,0-2.45.11,13.53,13.53,0,0,0,2.45.11,13.54,13.54,0,0,0,2.45-.11" fill="#515153" opacity="0.61"/><path d="M13,18.63a13.81,13.81,0,0,0-2.4-.1,13.8,13.8,0,0,0-2.39.1,13.63,13.63,0,0,0,2.39.11,13.64,13.64,0,0,0,2.4-.11" fill="#505052" opacity="0.62"/><path d="M13,18.63a14,14,0,0,0-2.34-.1,13.94,13.94,0,0,0-2.34.1,13.76,13.76,0,0,0,2.34.1,13.77,13.77,0,0,0,2.34-.1" fill="#4f4f51" opacity="0.62"/><path d="M12.91,18.63a14.12,14.12,0,0,0-2.29-.09,14.11,14.11,0,0,0-2.28.09,13.92,13.92,0,0,0,2.28.09,13.93,13.93,0,0,0,2.29-.09" fill="#4e4e50" opacity="0.63"/><path d="M12.85,18.63a14.33,14.33,0,0,0-2.23-.09,14.32,14.32,0,0,0-2.23.09,14.12,14.12,0,0,0,2.23.09,14.13,14.13,0,0,0,2.23-.09" fill="#4e4d4f" opacity="0.63"/><path d="M12.8,18.63a14.6,14.6,0,0,0-2.18-.08,14.59,14.59,0,0,0-2.17.08,14.37,14.37,0,0,0,2.17.08,14.38,14.38,0,0,0,2.18-.08" fill="#4d4c4e" opacity="0.64"/><path d="M12.74,18.63a14.92,14.92,0,0,0-2.12-.08,14.91,14.91,0,0,0-2.12.08,14.68,14.68,0,0,0,2.12.08,14.69,14.69,0,0,0,2.12-.08" fill="#4c4b4d" opacity="0.64"/><path d="M12.69,18.63a15.32,15.32,0,0,0-2.06-.07,15.31,15.31,0,0,0-2.06.07,15.06,15.06,0,0,0,2.06.07,15.07,15.07,0,0,0,2.06-.07" fill="#4b4a4c" opacity="0.65"/><path d="M12.63,18.63a15.82,15.82,0,0,0-2-.06,15.81,15.81,0,0,0-2,.06,15.52,15.52,0,0,0,2,.06,15.54,15.54,0,0,0,2-.06" fill="#4a494b" opacity="0.65"/><path d="M12.58,18.63a16.45,16.45,0,0,0-2-.06,16.43,16.43,0,0,0-2,.06,16.11,16.11,0,0,0,2,.06,16.13,16.13,0,0,0,2-.06" fill="#49484a" opacity="0.66"/><path d="M12.52,18.63a17.24,17.24,0,0,0-1.9-.05,17.22,17.22,0,0,0-1.9.05,16.86,16.86,0,0,0,1.9.05,16.87,16.87,0,0,0,1.9-.05" fill="#484749" opacity="0.66"/><path d="M12.47,18.63a18.26,18.26,0,0,0-1.84,0,18.24,18.24,0,0,0-1.84,0,17.81,17.81,0,0,0,1.84,0,17.83,17.83,0,0,0,1.84,0" fill="#474648" opacity="0.67"/><path d="M12.41,18.63s-.8,0-1.79,0-1.79,0-1.79,0,.8,0,1.79,0,1.79,0,1.79,0" fill="#464547" opacity="0.67"/><path d="M12.36,18.63s-.78,0-1.73,0-1.73,0-1.73,0,.78,0,1.73,0,1.73,0,1.73,0" fill="#454446" opacity="0.68"/><path d="M12.3,18.63s-.75,0-1.68,0-1.68,0-1.68,0,.75,0,1.68,0,1.68,0,1.68,0" fill="#444345" opacity="0.68"/><path d="M12.25,18.63s-.73,0-1.62,0-1.62,0-1.62,0,.73,0,1.62,0,1.62,0,1.62,0" fill="#434244" opacity="0.69"/><path d="M12.19,18.63l-1.57,0-1.57,0s.7,0,1.57,0,1.57,0,1.57,0" fill="#424143" opacity="0.69"/><path d="M12.14,18.63h0" fill="#414042" opacity="0.7"/></g><polygon points="13.23 14.79 10 13.44 10.62 18.62 13.23 14.79" fill="#9c342e"/><g opacity="0.8"><path d="M13.23,14.8c-.54.67-1.18,2-2.07,1.61s-.92-1.5-1.16-3Z" fill="#464648" opacity="0"/><path d="M13.22,14.79c-.52.65-1.16,1.91-2,1.54s-.94-1.47-1.17-2.88Z" fill="#454547" opacity="0.02"/><path d="M13.21,14.79c-.5.63-1.14,1.83-2,1.46s-1-1.44-1.18-2.79Z" fill="#434345" opacity="0.04"/><path d="M13.21,14.79c-.48.61-1.12,1.75-2,1.38s-1-1.41-1.2-2.71Z" fill="#424244" opacity="0.05"/><path d="M13.2,14.78c-.47.59-1.11,1.67-2,1.3s-1-1.38-1.21-2.63Z" fill="#414042" opacity="0.07"/><path d="M13.19,14.78c-.45.57-1.09,1.59-2,1.23s-1-1.34-1.22-2.55Z" fill="#403f41" opacity="0.09"/><path d="M13.18,14.78c-.43.54-1.07,1.51-1.95,1.15s-1-1.31-1.23-2.47Z" fill="#3e3e3f" opacity="0.11"/><path d="M13.18,14.78c-.41.52-1.05,1.43-1.93,1.07S10.18,14.57,10,13.46Z" fill="#3d3c3e" opacity="0.13"/><path d="M13.17,14.77c-.39.5-1,1.35-1.91,1S10.17,14.52,10,13.46Z" fill="#3c3b3d" opacity="0.14"/><path d="M13.16,14.77c-.37.48-1,1.28-1.89.91S10.17,14.47,10,13.46Z" fill="#3b393b" opacity="0.16"/><path d="M13.15,14.77c-.36.46-1,1.2-1.87.84S10.16,14.42,10,13.46Z" fill="#39383a" opacity="0.18"/><path d="M13.14,14.76a1.59,1.59,0,0,1-1.85.76A2.33,2.33,0,0,1,10,13.46Z" fill="#383738" opacity="0.2"/><path d="M13.14,14.76a1.55,1.55,0,0,1-1.83.68,2.26,2.26,0,0,1-1.3-2Z" fill="#373537" opacity="0.21"/><path d="M13.13,14.76a1.52,1.52,0,0,1-1.81.6A2.2,2.2,0,0,1,10,13.46Z" fill="#363435" opacity="0.23"/><path d="M13.12,14.75a1.49,1.49,0,0,1-1.79.52A2.14,2.14,0,0,1,10,13.46Z" fill="#353334" opacity="0.25"/><path d="M13.11,14.75a1.47,1.47,0,0,1-1.77.45A2.09,2.09,0,0,1,10,13.46Z" fill="#333133" opacity="0.27"/><path d="M13.11,14.75a1.45,1.45,0,0,1-1.75.37A2.05,2.05,0,0,1,10,13.46Z" fill="#323031" opacity="0.29"/><path d="M13.1,14.74a1.45,1.45,0,0,1-1.73.29A2,2,0,0,1,10,13.46Z" fill="#312e30" opacity="0.3"/><path d="M13.09,14.74a1.46,1.46,0,0,1-1.71.21A2,2,0,0,1,10,13.46Z" fill="#302d2e" opacity="0.32"/><path d="M13.08,14.74a1.48,1.48,0,0,1-1.69.13c-.85-.35-1.32-.89-1.38-1.41Z" fill="#2e2c2d" opacity="0.34"/><path d="M13.08,14.73c-.17.24-.83.41-1.67.06s-1.34-.86-1.39-1.33Z" fill="#2d2a2b" opacity="0.36"/><path d="M13.07,14.73c-.16.22-.81.33-1.65,0s-1.36-.83-1.4-1.25Z" fill="#2c292a" opacity="0.37"/><path d="M13.06,14.73c-.14.2-.79.25-1.63-.1s-1.38-.8-1.41-1.17Z" fill="#2b2729" opacity="0.39"/><path d="M13.05,14.72c-.12.18-.77.17-1.61-.18S10,13.78,10,13.46Z" fill="#292627" opacity="0.41"/><path d="M13,14.72c-.1.16-.76.09-1.59-.25s-1.42-.73-1.43-1Z" fill="#282526" opacity="0.43"/><path d="M13,14.72c-.08.14-.74,0-1.57-.33S10,13.68,10,13.46Z" fill="#272324" opacity="0.45"/><path d="M13,14.71c-.07.11-.72-.07-1.55-.41S10,13.63,10,13.46Z" fill="#262223" opacity="0.46"/><path d="M13,14.71a4.06,4.06,0,0,1-1.53-.49c-.83-.34-1.48-.64-1.47-.76Z" fill="#242021" opacity="0.48"/><path d="M13,14.71a6.67,6.67,0,0,1-1.51-.57A6.76,6.76,0,0,1,10,13.47Z" fill="#231f20" opacity="0.5"/></g><polygon points="9.64 10.43 1.89 10.06 13.23 14.79 9.64 10.43" fill="#9c342e"/><polygon points="13.8 0.49 13.44 2.26 19.93 2.32 13.8 0.49" fill="#9c342e"/><g opacity="0.6"><path d="M13.49,2.26c-.2-.25.15-1.76.31-1.72,1.16.31,2.61.78,6.13,1.77Z" fill="#464648" opacity="0"/><path d="M13.5,2.26C13.3,2,13.67.54,13.87.59c1.18.28,2.62.76,6.06,1.73Z" fill="#454547" opacity="0.01"/><path d="M13.51,2.26c-.19-.24.2-1.69.44-1.64,1.19.26,2.63.74,6,1.69Z" fill="#444446" opacity="0.02"/><path d="M13.52,2.26c-.18-.24.23-1.65.5-1.6,1.21.24,2.64.72,5.9,1.65Z" fill="#434345" opacity="0.04"/><path d="M13.53,2.27c-.18-.23.26-1.61.57-1.56,1.22.22,2.64.7,5.83,1.61Z" fill="#434244" opacity="0.05"/><path d="M13.54,2.27c-.17-.23.29-1.57.63-1.51,1.23.21,2.65.68,5.75,1.57Z" fill="#424143" opacity="0.06"/><path d="M13.55,2.27c-.17-.23.32-1.53.7-1.47,1.24.2,2.66.66,5.67,1.52Z" fill="#414042" opacity="0.07"/><path d="M13.56,2.27c-.16-.22.35-1.5.76-1.43a52.5,52.5,0,0,1,5.6,1.48Z" fill="#403f41" opacity="0.09"/><path d="M13.57,2.27C13.41,2,13.95.81,14.4.87a46.93,46.93,0,0,1,5.52,1.44Z" fill="#3f3e40" opacity="0.1"/><path d="M13.58,2.27c-.15-.21.41-1.42.89-1.35a42.45,42.45,0,0,1,5.44,1.4Z" fill="#3e3d3f" opacity="0.11"/><path d="M13.59,2.27c-.15-.21.44-1.38,1-1.31a38.76,38.76,0,0,1,5.37,1.36Z" fill="#3d3c3e" opacity="0.12"/><path d="M13.6,2.27c-.14-.21.46-1.34,1-1.27a35.65,35.65,0,0,1,5.29,1.32Z" fill="#3d3c3d" opacity="0.13"/><path d="M13.61,2.27C13.47,2.06,14.1,1,14.7,1a33,33,0,0,1,5.21,1.28Z" fill="#3c3b3c" opacity="0.15"/><path d="M13.62,2.27c-.13-.2.52-1.26,1.15-1.19a30.69,30.69,0,0,1,5.14,1.24Z" fill="#3b3a3b" opacity="0.16"/><path d="M13.63,2.27c-.13-.2.55-1.22,1.22-1.15a28.67,28.67,0,0,1,5.06,1.2Z" fill="#3a393a" opacity="0.17"/><path d="M13.64,2.27c-.12-.19.58-1.18,1.28-1.11a26.88,26.88,0,0,1,5,1.16Z" fill="#393839" opacity="0.18"/><path d="M13.65,2.27c-.12-.19.61-1.14,1.35-1.07A25.29,25.29,0,0,1,19.9,2.32Z" fill="#383738" opacity="0.2"/><path d="M13.66,2.27c-.12-.19.64-1.1,1.41-1A23.86,23.86,0,0,1,19.9,2.32Z" fill="#373637" opacity="0.21"/><path d="M13.67,2.27c-.11-.18.67-1.05,1.48-1a22.58,22.58,0,0,1,4.75,1Z" fill="#373536" opacity="0.22"/><path d="M13.68,2.27c-.11-.18.69-1,1.54-.95a21.42,21.42,0,0,1,4.67,1Z" fill="#363435" opacity="0.23"/><path d="M13.69,2.27c-.1-.18.72-1,1.61-.9a20.37,20.37,0,0,1,4.6,1Z" fill="#353334" opacity="0.24"/><path d="M13.71,2.27c-.1-.17.75-.93,1.67-.86a19.41,19.41,0,0,1,4.52.91Z" fill="#343234" opacity="0.26"/><path d="M13.72,2.27c-.09-.17.78-.89,1.74-.82a18.53,18.53,0,0,1,4.44.87Z" fill="#333133" opacity="0.27"/><path d="M13.73,2.27c-.09-.16.81-.85,1.8-.78a17.74,17.74,0,0,1,4.37.83Z" fill="#323032" opacity="0.28"/><path d="M13.74,2.27c-.08-.16.84-.8,1.87-.74a17,17,0,0,1,4.29.79Z" fill="#322f31" opacity="0.29"/><path d="M13.75,2.27c-.08-.16.87-.76,1.93-.7a16.35,16.35,0,0,1,4.21.75Z" fill="#312e30" opacity="0.3"/><path d="M13.76,2.27c-.07-.15.89-.72,2-.66a15.74,15.74,0,0,1,4.14.71Z" fill="#302d2f" opacity="0.32"/><path d="M13.77,2.27c-.07-.15.92-.68,2.06-.62a15.2,15.2,0,0,1,4.06.67Z" fill="#2f2c2e" opacity="0.33"/><path d="M13.78,2.27c-.06-.15,1-.63,2.12-.58a14.7,14.7,0,0,1,4,.63Z" fill="#2e2b2d" opacity="0.34"/><path d="M13.79,2.27c-.06-.14,1-.59,2.19-.54a14.26,14.26,0,0,1,3.91.59Z" fill="#2d2a2c" opacity="0.35"/><path d="M13.8,2.27a3.34,3.34,0,0,1,2.25-.5,13.88,13.88,0,0,1,3.83.55Z" fill="#2c292b" opacity="0.37"/><path d="M13.81,2.27a3.69,3.69,0,0,1,2.32-.46,13.55,13.55,0,0,1,3.75.51Z" fill="#2c292a" opacity="0.38"/><path d="M13.82,2.27a4.11,4.11,0,0,1,2.38-.42,13.28,13.28,0,0,1,3.68.46Z" fill="#2b2829" opacity="0.39"/><path d="M13.83,2.27a4.6,4.6,0,0,1,2.45-.38,13.07,13.07,0,0,1,3.6.42Z" fill="#2a2728" opacity="0.4"/><path d="M13.84,2.27a5.19,5.19,0,0,1,2.51-.33,12.94,12.94,0,0,1,3.52.38Z" fill="#292627" opacity="0.41"/><path d="M13.85,2.27A5.91,5.91,0,0,1,16.43,2a12.89,12.89,0,0,1,3.45.34Z" fill="#282526" opacity="0.43"/><path d="M13.86,2.27A6.79,6.79,0,0,1,16.51,2a13,13,0,0,1,3.37.3Z" fill="#272425" opacity="0.44"/><path d="M13.87,2.27a7.89,7.89,0,0,1,2.71-.21,13.16,13.16,0,0,1,3.29.26Z" fill="#262324" opacity="0.45"/><path d="M13.88,2.27a9.3,9.3,0,0,1,2.77-.17,13.57,13.57,0,0,1,3.22.22Z" fill="#262223" opacity="0.46"/><path d="M13.89,2.27a11.16,11.16,0,0,1,2.84-.13,14.28,14.28,0,0,1,3.14.18Z" fill="#252122" opacity="0.48"/><path d="M13.9,2.27a13.94,13.94,0,0,1,2.9-.09,15.76,15.76,0,0,1,3.06.14Z" fill="#242021" opacity="0.49"/><path d="M13.91,2.27a17.33,17.33,0,0,1,3-.05,17.62,17.62,0,0,1,3,.1Z" fill="#231f20" opacity="0.5"/></g><g opacity="0.8"><path d="M9.67,10.43c.09.49,2.6,2.94,1.51,3-1.34.08-4.31-1.81-9.3-3.37Z" fill="#464648" opacity="0"/><path d="M9.66,10.43c.09.48,2.5,2.86,1.39,2.92-1.36.07-4.3-1.77-9.16-3.3Z" fill="#454547" opacity="0.01"/><path d="M9.65,10.43c.09.47,2.4,2.79,1.26,2.85-1.37.07-4.28-1.72-9-3.22Z" fill="#444446" opacity="0.02"/><path d="M9.63,10.43c.08.46,2.3,2.72,1.14,2.77-1.39.07-4.26-1.68-8.88-3.14Z" fill="#434345" opacity="0.04"/><path d="M9.62,10.43c.08.45,2.19,2.65,1,2.7-1.4.06-4.24-1.64-8.74-3.07Z" fill="#434244" opacity="0.05"/><path d="M9.61,10.43c.08.44,2.09,2.58.89,2.62-1.42.06-4.23-1.6-8.6-3Z" fill="#424143" opacity="0.06"/><path d="M9.6,10.43c.08.43,2,2.51.76,2.55C8.93,13,6.15,11.42,1.9,10.06Z" fill="#414042" opacity="0.07"/><path d="M9.58,10.43c.07.42,1.88,2.43.64,2.47-1.45,0-4.19-1.52-8.32-2.84Z" fill="#403f41" opacity="0.09"/><path d="M9.57,10.43c.07.42,1.78,2.36.52,2.4-1.47,0-4.18-1.48-8.19-2.76Z" fill="#3f3e40" opacity="0.1"/><path d="M9.56,10.43c.07.41,1.68,2.29.39,2.32-1.48,0-4.16-1.44-8-2.69Z" fill="#3e3d3f" opacity="0.11"/><path d="M9.55,10.43c.07.4,1.58,2.22.27,2.25-1.5,0-4.14-1.4-7.91-2.61Z" fill="#3d3c3e" opacity="0.12"/><path d="M9.53,10.43c.06.39,1.47,2.15.14,2.17-1.51,0-4.13-1.36-7.77-2.54Z" fill="#3d3c3d" opacity="0.13"/><path d="M9.52,10.43c.06.38,1.37,2.08,0,2.1-1.53,0-4.11-1.32-7.63-2.46Z" fill="#3c3b3c" opacity="0.15"/><path d="M9.51,10.43c.06.37,1.27,2-.11,2-1.55,0-4.09-1.28-7.49-2.39Z" fill="#3b3a3b" opacity="0.16"/><path d="M9.5,10.43c.06.36,1.17,1.93-.23,1.95-1.56,0-4.07-1.24-7.35-2.31Z" fill="#3a393a" opacity="0.17"/><path d="M9.48,10.42c.06.35,1.06,1.86-.35,1.87-1.58,0-4.06-1.2-7.21-2.23Z" fill="#393839" opacity="0.18"/><path d="M9.47,10.42c.05.34,1,1.79-.48,1.8-1.59,0-4-1.16-7.08-2.16Z" fill="#383738" opacity="0.2"/><path d="M9.46,10.42c.05.34.86,1.72-.6,1.72s-4-1.12-6.94-2.08Z" fill="#373637" opacity="0.21"/><path d="M9.44,10.42c0,.33.76,1.65-.73,1.65s-4-1.08-6.8-2Z" fill="#373536" opacity="0.22"/><path d="M9.43,10.42c0,.32.65,1.58-.85,1.57s-4-1-6.66-1.93Z" fill="#363435" opacity="0.23"/><path d="M9.42,10.42c0,.31.55,1.51-1,1.5s-4-1-6.52-1.85Z" fill="#353334" opacity="0.24"/><path d="M9.41,10.42c0,.3.45,1.43-1.1,1.42s-4-1-6.38-1.78Z" fill="#343234" opacity="0.26"/><path d="M9.39,10.42c0,.29.35,1.36-1.23,1.35s-3.94-.91-6.24-1.7Z" fill="#333133" opacity="0.27"/><path d="M9.38,10.42c0,.28.24,1.29-1.35,1.27s-3.92-.87-6.1-1.63Z" fill="#323032" opacity="0.28"/><path d="M9.37,10.42c0,.27.14,1.22-1.47,1.2a21.7,21.7,0,0,1-6-1.55Z" fill="#322f31" opacity="0.29"/><path d="M9.36,10.42c0,.26,0,1.15-1.6,1.12a20.72,20.72,0,0,1-5.83-1.48Z" fill="#312e30" opacity="0.3"/><path d="M9.34,10.42c0,.26-.06,1.08-1.72,1a19.8,19.8,0,0,1-5.69-1.4Z" fill="#302d2f" opacity="0.32"/><path d="M9.33,10.42c0,.25-.17,1-1.85,1a19,19,0,0,1-5.55-1.32Z" fill="#2f2c2e" opacity="0.33"/><path d="M9.32,10.42c0,.24-.27.94-2,.89a18.07,18.07,0,0,1-5.41-1.25Z" fill="#2e2b2d" opacity="0.34"/><path d="M9.31,10.42c0,.23-.37.87-2.1.82a17.37,17.37,0,0,1-5.27-1.17Z" fill="#2d2a2c" opacity="0.35"/><path d="M9.29,10.42c0,.22-.47.8-2.22.74a16.73,16.73,0,0,1-5.13-1.1Z" fill="#2c292b" opacity="0.37"/><path d="M9.28,10.42c0,.21-.58.73-2.35.67a16.15,16.15,0,0,1-5-1Z" fill="#2c292a" opacity="0.38"/><path d="M9.27,10.41c0,.2-.68.65-2.47.59a15.65,15.65,0,0,1-4.86-.95Z" fill="#2b2829" opacity="0.39"/><path d="M9.26,10.41c0,.19-.78.58-2.59.52a15.23,15.23,0,0,1-4.72-.87Z" fill="#2a2728" opacity="0.4"/><path d="M9.24,10.41c0,.18-.89.51-2.72.44a14.9,14.9,0,0,1-4.58-.79Z" fill="#292627" opacity="0.41"/><path d="M9.23,10.41c0,.17-1,.44-2.84.37a14.67,14.67,0,0,1-4.44-.72Z" fill="#282526" opacity="0.43"/><path d="M9.22,10.41c0,.17-1.09.37-3,.29a14.58,14.58,0,0,1-4.3-.64Z" fill="#272425" opacity="0.44"/><path d="M9.2,10.41c0,.16-1.19.3-3.09.22A14.69,14.69,0,0,1,2,10.06Z" fill="#262324" opacity="0.45"/><path d="M9.19,10.41c0,.15-1.3.23-3.22.14a15.07,15.07,0,0,1-4-.49Z" fill="#262223" opacity="0.46"/><path d="M9.18,10.41a11.42,11.42,0,0,1-3.34.07A15.9,15.9,0,0,1,2,10.06Z" fill="#252122" opacity="0.48"/><path d="M9.17,10.41a15.15,15.15,0,0,1-3.47,0A17.57,17.57,0,0,1,2,10.06Z" fill="#242021" opacity="0.49"/><path d="M9.15,10.41a20.86,20.86,0,0,1-3.59-.08A21.17,21.17,0,0,1,2,10.06Z" fill="#231f20" opacity="0.5"/></g><polygon points="19.93 2.32 -0.07 2.16 1.89 10.06 17.39 10.8 19.93 2.32" fill="#9c342e"/><path d="M1.89,3.18h.25L2,3.63a.52.52,0,0,1,.29.1.31.31,0,0,1,.1.29.33.33,0,0,1-.1.3.63.63,0,0,1-.34.08.62.62,0,0,1-.35-.08.33.33,0,0,1-.1-.3.62.62,0,0,1,0-.2l0-.07Zm1.05,0h.25L3,3.63a.52.52,0,0,1,.29.1.31.31,0,0,1,.1.29.33.33,0,0,1-.1.3A.62.62,0,0,1,3,4.39a.62.62,0,0,1-.35-.08.33.33,0,0,1-.1-.3.62.62,0,0,1,0-.2l0-.07Z" fill="#fff"/><path d="M16.25,9.8H16l.18-.46a.52.52,0,0,1-.29-.1.31.31,0,0,1-.1-.29.33.33,0,0,1,.1-.3.79.79,0,0,1,.68,0,.33.33,0,0,1,.1.3.62.62,0,0,1,0,.2l0,.07Zm-1.05,0H15l.18-.46a.52.52,0,0,1-.29-.1.31.31,0,0,1-.1-.29.33.33,0,0,1,.1-.3.63.63,0,0,1,.34-.08.62.62,0,0,1,.34.08.33.33,0,0,1,.1.3.62.62,0,0,1,0,.2l0,.07Z" fill="#fff"/></svg>