<svg id="Layer_1" data-name="Layer 1" xmlns="http://www.w3.org/2000/svg" viewBox="0 0 20 20"><title>paper-plane</title><path d="M3.28,14.66h0a.09.09,0,0,0,0,.08h0s0,0,0,.05l0,0,0,0h.05l.08,0a.19.19,0,0,0,.1,0h0L5.7,13.61l.56,1.3a.17.17,0,0,0,.13.1h.05a.23.23,0,0,0,.13,0L19.92,5.32h0l0,0h0l0,0h0v0s0,0,0-.05h0V5.11h0V5h0l0,0h-.18L.15,9.31a.19.19,0,0,0-.15.2.2.2,0,0,0,.2.18l3.1.05v4.91Zm1-4.81h0a.08.08,0,0,1-.05,0l0,0,0,0h0V10l-.48,2.57V9.67l7.53-2Zm-.53,4.43.69-3.59,1.09,2.54Zm2.72.28-1.86-4.4L18.7,5.7ZM11.3,7.23l-4,1.07-3.87,1-1.58,0Z"/></svg>