<svg id="Layer_1" data-name="Layer 1" xmlns="http://www.w3.org/2000/svg" xmlns:xlink="http://www.w3.org/1999/xlink" viewBox="0 0 20 20"><defs><linearGradient id="linear-gradient" x1="8.76" y1="13.52" x2="10.14" y2="5.12" gradientUnits="userSpaceOnUse"><stop offset="0" stop-color="#ffc900"/><stop offset="1" stop-color="#ffeeab"/></linearGradient><linearGradient id="linear-gradient-2" x1="11.34" y1="8.5" x2="10.81" y2="13.55" gradientUnits="userSpaceOnUse"><stop offset="0" stop-color="#ffc900"/><stop offset="1" stop-color="#d99815"/></linearGradient><linearGradient id="linear-gradient-3" x1="11.13" y1="13.91" x2="12.51" y2="5.51" xlink:href="#linear-gradient"/><linearGradient id="linear-gradient-4" x1="3.18" y1="12.61" x2="8.14" y2="14.52" gradientUnits="userSpaceOnUse"><stop offset="0" stop-color="#934709"/><stop offset="1" stop-color="#d99815"/></linearGradient><linearGradient id="linear-gradient-5" x1="4.06" y1="7.74" x2="3.54" y2="12.8" xlink:href="#linear-gradient-2"/><linearGradient id="linear-gradient-6" x1="-3.94" y1="8.03" x2="3.79" y2="11.01" xlink:href="#linear-gradient-4"/><linearGradient id="linear-gradient-7" x1="4.39" y1="11.22" x2="14.74" y2="15.22" xlink:href="#linear-gradient-4"/><linearGradient id="linear-gradient-8" x1="3.74" y1="15.45" x2="2.99" y2="10.18" xlink:href="#linear-gradient-4"/><linearGradient id="linear-gradient-9" x1="3.51" y1="15.91" x2="4.65" y2="9.59" gradientUnits="userSpaceOnUse"><stop offset="0" stop-color="#944105"/><stop offset="1" stop-color="#854d05"/></linearGradient><linearGradient id="linear-gradient-10" x1="19.15" y1="5.27" x2="8.06" y2="13.33" xlink:href="#linear-gradient-2"/></defs><title>paper-plane</title><polygon points="-0.21 9.65 3.06 10.53 19.79 4.83 -0.21 9.65" fill="url(#linear-gradient)"/><polygon points="19.79 4.83 3.06 10.53 4.43 11.08 19.79 4.83" fill="url(#linear-gradient-2)"/><polygon points="8.53 12.95 19.79 4.83 4.43 11.08 8.53 12.95" fill="url(#linear-gradient-3)"/><polygon points="6.39 11.97 4.43 11.08 3.67 14.81 6.39 11.97" fill="url(#linear-gradient-4)"/><polygon points="3.67 14.81 4.44 11.07 3.06 10.53 3.67 14.81" fill="url(#linear-gradient-5)"/><polygon points="-0.21 9.65 -0.21 9.67 3.05 10.56 3.05 10.53 -0.21 9.65" opacity="0.8" fill="url(#linear-gradient-6)"/><polygon points="8.53 12.95 4.43 11.08 4.42 11.11 8.53 12.98 8.53 12.95" opacity="0.8" fill="url(#linear-gradient-7)"/><polygon points="3.06 10.53 3.02 10.55 3.63 14.8 3.67 14.81 3.06 10.53" opacity="0.8" fill="url(#linear-gradient-8)"/><polygon points="3.63 14.8 4.43 11.08 4.46 11.09 3.67 14.81 3.63 14.8" opacity="0.8" fill="url(#linear-gradient-9)"/><polygon points="8.53 12.95 19.79 4.83 19.79 4.86 8.53 12.98 8.53 12.95" fill="url(#linear-gradient-10)"/><polygon points="3.02 10.52 19.79 4.83 3.06 10.57 3.05 10.53 3.02 10.52" fill="#fff" opacity="0.2"/></svg>